<?xml version="1.0" encoding="UTF-8"?>
<svg xmlns="http://www.w3.org/2000/svg" xmlns:xlink="http://www.w3.org/1999/xlink" width="263.42pt" height="226.94pt" viewBox="0 0 263.42 226.94" version="1.1">
<g id="surface1">
<path style=" stroke:none;fill-rule:evenodd;fill:rgb(0%,79.998779%,100%);fill-opacity:1;" d="M 8.226562 9.445312 L 83.695312 140.164062 L 116.53125 140.164062 C 119.34375 144.476562 124.207031 147.324219 129.738281 147.324219 C 138.441406 147.324219 145.496094 140.269531 145.496094 131.5625 C 145.496094 122.859375 138.441406 115.800781 129.738281 115.800781 C 124.207031 115.800781 119.34375 118.652344 116.53125 122.960938 L 93.539062 122.960938 L 37.929688 26.644531 L 221.546875 26.644531 L 210.761719 45.328125 L 230.535156 45.328125 L 251.253906 9.445312 Z M 129.738281 64.601562 C 133.34375 64.601562 136.265625 67.523438 136.265625 71.128906 C 136.265625 74.734375 133.34375 77.65625 129.738281 77.65625 C 126.128906 77.65625 123.207031 74.734375 123.207031 71.128906 C 123.207031 67.523438 126.128906 64.601562 129.738281 64.601562 M 129.738281 125.035156 C 133.34375 125.035156 136.265625 127.957031 136.265625 131.5625 C 136.265625 135.167969 133.34375 138.089844 129.738281 138.089844 C 126.132812 138.089844 123.207031 135.167969 123.207031 131.5625 C 123.207031 127.957031 126.132812 125.035156 129.738281 125.035156 M 129.738281 55.367188 C 135.269531 55.367188 140.132812 58.214844 142.945312 62.527344 L 220.605469 62.527344 L 129.738281 219.917969 L 93.625 157.363281 L 113.402344 157.363281 L 129.738281 185.660156 L 190.898438 79.730469 L 142.945312 79.730469 C 140.132812 84.042969 135.269531 86.890625 129.738281 86.890625 C 121.035156 86.890625 113.976562 79.835938 113.976562 71.128906 C 113.976562 62.421875 121.035156 55.367188 129.738281 55.367188 "/>
</g>
</svg>