<svg xmlns="http://www.w3.org/2000/svg" xmlns:xlink="http://www.w3.org/1999/xlink" xmlns:inkscape="http://www.inkscape.org/namespaces/inkscape" version="1.1" width="368.78999" height="100.729999" viewBox="0 0 368.78999 100.729999">
<defs>
<clipPath id="clip_0">
<path transform="matrix(1,0,0,-1,-65.42,237.47)" d="M0 0H498V498H0Z"/>
</clipPath>
</defs>
<g inkscape:groupmode="layer" inkscape:label="Layer 1">
<g clip-path="url(#clip_0)">
<path transform="matrix(1,0,0,-1,134.6581,-68.06271)" d="M0 0C0 2.617-.779 4.547-2.335 5.777-3.892 7.007-6.329 7.619-9.645 7.619H-18.782C-20.813 7.619-21.828 8.435-21.828 10.066V10.881C-21.828 12.513-20.813 13.328-18.782 13.328H-14.045-2.995 0V19.037H-2.995-14.045-20.813C-24.366 19.037-26.946 18.392-28.554 17.1-30.161 15.809-30.964 13.736-30.964 10.881V9.658C-30.964 6.804-30.161 4.73-28.554 3.439-26.946 2.147-24.366 1.502-20.813 1.502H-11.087C-10.014 1.502-9.138 .625-9.138-.448V-1.958C-9.138-2.549-9.366-3.018-9.823-3.364-10.28-3.711-10.897-3.881-11.675-3.881H-12.152-17.107-21.312-23.3-30.508-30.964V-9.631H-30.508-23.264-23.148-21.312-19.823-16.32-12.869-12.152-9.645C-6.329-9.631-3.892-9.012-2.335-7.783-.779-6.552 0-4.628 0-2.012Z" fill="#00cbff" fill-rule="evenodd"/>
<path transform="matrix(1,0,0,-1,148.4911,-87.09979)" d="M0 0-13.452-28.546H-3.554L-1.27-23.448H11.421L13.706-28.546H23.604L10.152 0ZM9.137-18.147H1.015L5.076-8.563Z" fill="#00cbff" fill-rule="evenodd"/>
<path transform="matrix(1,0,0,-1,183.9648,-74.45871)" d="M0 0 7.106-10.195H14.213L21.32 0V-15.905H30.457V12.641H20.812L10.66-2.447 .508 12.641H-9.137V-15.905H0Z" fill="#00cbff" fill-rule="evenodd"/>
<path transform="matrix(1,0,0,-1,228.6357,-81.39081)" d="M0 0V-22.837H9.137V0H19.796V5.709H-10.661V0Z" fill="#171d3a" fill-rule="evenodd"/>
<path transform="matrix(1,0,0,-1,251.9853,-87.09979)" d="M0 0V-28.546H28.173V-22.836H9.138V-16.923H24.112V-11.214H9.138V-5.709H28.173V0Z" fill="#171d3a" fill-rule="evenodd"/>
<path transform="matrix(1,0,0,-1,315.69129,-87.09979)" d="M0 0V-28.546H9.137V-16.923H21.827V-28.546H30.965V0H21.827V-11.214H9.137V0Z" fill="#171d3a" fill-rule="evenodd"/>
<path transform="matrix(1,0,0,-1,292.8495,-66.091)" d="M0 0V13.35C0 14.422 .877 15.3 1.95 15.3H19.289V21.009H-1.825C-5.848 21.009-9.138 17.719-9.138 13.697V-.347C-9.138-4.369-5.848-7.659-1.825-7.659H19.289V-1.95H1.95C.877-1.95 0-1.073 0 0" fill="#171d3a" fill-rule="evenodd"/>
<path transform="matrix(1,0,0,-1,17.399804,-106.4646)" d="M0 0 24.191-41.901H27.346 33.592 34.716C35.617-43.283 37.177-44.197 38.949-44.197 41.739-44.197 44-41.935 44-39.144 44-36.354 41.739-34.092 38.949-34.092 37.177-34.092 35.618-35.005 34.716-36.387H33.592 27.346L9.521-5.514H68.378L64.921-11.502H71.26L77.9 0ZM38.949-17.68C40.105-17.68 41.042-18.617 41.042-19.773 41.042-20.929 40.105-21.865 38.949-21.865 37.794-21.865 36.857-20.929 36.857-19.773 36.857-18.617 37.794-17.68 38.949-17.68M38.949-37.052C40.105-37.052 41.042-37.989 41.042-39.144 41.042-40.3 40.105-41.237 38.949-41.237 37.794-41.237 36.857-40.3 36.857-39.144 36.857-37.989 37.794-37.052 38.949-37.052M38.949-14.72C40.722-14.72 42.282-15.634 43.183-17.016H44.292 58.554 68.077L38.95-67.465 27.374-47.415H33.713L38.949-56.485 58.554-22.529H44.292 43.183C42.282-23.912 40.722-24.825 38.949-24.825 36.16-24.825 33.898-22.563 33.898-19.773 33.898-16.982 36.16-14.72 38.949-14.72" fill="#00cbff" fill-rule="evenodd"/>
<path transform="matrix(1,0,0,-1,112.18111,67.05791)" d="M0 0-1.217-1.072C-1.643-.48-2.077-.184-2.52-.184-2.735-.184-2.912-.242-3.048-.356-3.186-.473-3.254-.603-3.254-.746-3.254-.891-3.206-1.028-3.108-1.157-2.974-1.329-2.572-1.697-1.901-2.264-1.275-2.788-.895-3.118-.76-3.254-.428-3.59-.192-3.911-.052-4.217 .086-4.524 .156-4.859 .156-5.222 .156-5.93-.088-6.512-.578-6.975-1.066-7.436-1.705-7.665-2.494-7.665-3.108-7.665-3.642-7.515-4.099-7.215-4.555-6.912-4.947-6.439-5.271-5.796L-3.889-4.964C-3.472-5.724-2.994-6.104-2.454-6.104-2.171-6.104-1.934-6.021-1.741-5.858-1.549-5.694-1.453-5.504-1.453-5.29-1.453-5.096-1.525-4.898-1.671-4.703-1.815-4.509-2.135-4.208-2.629-3.807-3.57-3.042-4.176-2.451-4.451-2.035-4.725-1.619-4.863-1.205-4.863-.791-4.863-.192-4.635 .32-4.181 .746-3.725 1.175-3.162 1.39-2.494 1.39-2.063 1.39-1.653 1.288-1.264 1.091-.875 .891-.454 .528 0 0M4.537-.917C5.139-.917 5.705-1.067 6.235-1.367 6.768-1.667 7.181-2.073 7.479-2.588 7.777-3.104 7.925-3.658 7.925-4.255 7.925-4.855 7.774-5.415 7.477-5.938 7.176-6.461 6.768-6.869 6.251-7.163 5.733-7.457 5.165-7.604 4.542-7.604 3.625-7.604 2.844-7.281 2.197-6.632 1.548-5.981 1.225-5.193 1.225-4.267 1.225-3.272 1.591-2.443 2.323-1.781 2.966-1.205 3.702-.917 4.537-.917M4.56-2.418C4.062-2.418 3.648-2.59 3.318-2.934 2.987-3.28 2.821-3.721 2.821-4.259 2.821-4.811 2.986-5.26 3.312-5.602 3.638-5.944 4.052-6.116 4.555-6.116 5.055-6.116 5.471-5.941 5.806-5.596 6.138-5.25 6.304-4.803 6.304-4.259 6.304-3.713 6.14-3.271 5.813-2.928 5.487-2.588 5.069-2.418 4.56-2.418M9.055 1.39H10.653V-7.449H9.055ZM12.101-1.072H13.723V-4.139C13.723-4.734 13.765-5.149 13.847-5.382 13.929-5.613 14.061-5.794 14.243-5.924 14.425-6.052 14.651-6.116 14.917-6.116 15.184-6.116 15.412-6.052 15.598-5.926 15.784-5.8 15.922-5.613 16.012-5.368 16.078-5.184 16.112-4.791 16.112-4.19V-1.072H17.709V-3.771C17.709-4.883 17.622-5.644 17.445-6.054 17.231-6.554 16.913-6.937 16.494-7.205 16.076-7.471 15.544-7.604 14.9-7.604 14.199-7.604 13.635-7.449 13.203-7.137 12.771-6.824 12.466-6.39 12.29-5.832 12.164-5.445 12.101-4.743 12.101-3.725ZM19.5 1.281H21.097V-1.072H22.046V-2.454H21.097V-7.449H19.5V-2.454H18.684V-1.072H19.5ZM23.543 1.545C23.823 1.545 24.063 1.442 24.263 1.241 24.466 1.038 24.565 .794 24.565 .506 24.565 .222 24.466-.02 24.267-.22 24.069-.42 23.832-.521 23.553-.521 23.269-.521 23.026-.419 22.827-.214 22.625-.01 22.524 .238 22.524 .53 22.524 .811 22.625 1.049 22.822 1.246 23.021 1.445 23.261 1.545 23.543 1.545M22.74-1.072H24.337V-7.449H22.74ZM28.787-.917C29.389-.917 29.955-1.067 30.485-1.367 31.018-1.667 31.431-2.073 31.729-2.588 32.027-3.104 32.175-3.658 32.175-4.255 32.175-4.855 32.024-5.415 31.727-5.938 31.426-6.461 31.018-6.869 30.501-7.163 29.984-7.457 29.415-7.604 28.793-7.604 27.876-7.604 27.094-7.281 26.447-6.632 25.798-5.981 25.475-5.193 25.475-4.267 25.475-3.272 25.841-2.443 26.573-1.781 27.216-1.205 27.953-.917 28.787-.917M28.811-2.418C28.312-2.418 27.898-2.59 27.568-2.934 27.237-3.28 27.072-3.721 27.072-4.259 27.072-4.811 27.236-5.26 27.562-5.602 27.888-5.944 28.302-6.116 28.805-6.116 29.305-6.116 29.721-5.941 30.056-5.596 30.388-5.25 30.554-4.803 30.554-4.259 30.554-3.713 30.39-3.271 30.063-2.928 29.737-2.588 29.319-2.418 28.811-2.418M33.473-1.072H35.071V-1.729C35.433-1.425 35.763-1.215 36.058-1.095 36.352-.977 36.654-.917 36.962-.917 37.595-.917 38.132-1.137 38.573-1.577 38.943-1.953 39.129-2.507 39.129-3.24V-7.449H37.544V-4.661C37.544-3.901 37.51-3.396 37.442-3.148 37.375-2.898 37.254-2.708 37.086-2.578 36.917-2.447 36.706-2.382 36.458-2.382 36.134-2.382 35.855-2.49 35.624-2.706 35.391-2.922 35.23-3.223 35.141-3.603 35.095-3.803 35.071-4.233 35.071-4.896V-7.449H33.473ZM48.76-1.072H50.356V-7.449H48.76V-6.771C48.447-7.066 48.133-7.278 47.819-7.409 47.504-7.539 47.162-7.604 46.796-7.604 45.97-7.604 45.257-7.287 44.655-6.648 44.052-6.012 43.752-5.22 43.752-4.273 43.752-3.29 44.044-2.485 44.627-1.857 45.209-1.23 45.915-.917 46.748-.917 47.132-.917 47.491-.989 47.827-1.131 48.163-1.272 48.474-1.489 48.76-1.772ZM47.076-2.382C46.58-2.382 46.168-2.556 45.842-2.905 45.513-3.254 45.349-3.703 45.349-4.249 45.349-4.8 45.516-5.251 45.85-5.607 46.184-5.962 46.594-6.14 47.083-6.14 47.585-6.14 48.003-5.966 48.333-5.616 48.666-5.268 48.831-4.81 48.831-4.243 48.831-3.688 48.666-3.24 48.333-2.896 48.003-2.554 47.583-2.382 47.076-2.382M51.967-1.072H53.565V-1.729C53.927-1.425 54.257-1.215 54.552-1.095 54.845-.977 55.147-.917 55.456-.917 56.088-.917 56.626-1.137 57.067-1.577 57.437-1.953 57.623-2.507 57.623-3.24V-7.449H56.038V-4.661C56.038-3.901 56.004-3.396 55.936-3.148 55.868-2.898 55.748-2.708 55.58-2.578 55.41-2.447 55.2-2.382 54.951-2.382 54.627-2.382 54.349-2.49 54.117-2.706 53.885-2.922 53.725-3.223 53.635-3.603 53.588-3.803 53.565-4.233 53.565-4.896V-7.449H51.967ZM63.894 1.39H65.49V-7.449H63.894V-6.771C63.581-7.066 63.267-7.278 62.953-7.409 62.638-7.539 62.296-7.604 61.93-7.604 61.104-7.604 60.391-7.287 59.788-6.648 59.186-6.012 58.886-5.22 58.886-4.273 58.886-3.29 59.178-2.485 59.761-1.857 60.343-1.23 61.049-.917 61.882-.917 62.266-.917 62.625-.989 62.96-1.131 63.296-1.275 63.607-1.49 63.894-1.777ZM62.21-2.382C61.713-2.382 61.301-2.556 60.976-2.905 60.647-3.254 60.483-3.703 60.483-4.249 60.483-4.8 60.649-5.251 60.983-5.607 61.317-5.962 61.728-6.14 62.216-6.14 62.719-6.14 63.137-5.966 63.467-5.616 63.799-5.268 63.965-4.81 63.965-4.243 63.965-3.688 63.799-3.24 63.467-2.896 63.137-2.554 62.716-2.382 62.21-2.382M71.467 1.173H73.059L75.067-4.842 77.083 1.173H78.67L80.115-7.449H78.533L77.612-2.003 75.787-7.449H74.338L72.52-2.003 71.583-7.449H69.981ZM85.985-1.072H87.582V-7.449H85.985V-6.771C85.673-7.066 85.358-7.278 85.044-7.409 84.73-7.539 84.387-7.604 84.022-7.604 83.196-7.604 82.483-7.287 81.88-6.648 81.278-6.012 80.978-5.22 80.978-4.273 80.978-3.29 81.27-2.485 81.853-1.857 82.435-1.23 83.141-.917 83.973-.917 84.358-.917 84.716-.989 85.052-1.131 85.388-1.272 85.699-1.489 85.985-1.772ZM84.301-2.382C83.805-2.382 83.393-2.556 83.067-2.905 82.739-3.254 82.575-3.703 82.575-4.249 82.575-4.8 82.741-5.251 83.075-5.607 83.41-5.962 83.82-6.14 84.308-6.14 84.811-6.14 85.229-5.966 85.558-5.616 85.891-5.268 86.057-4.81 86.057-4.243 86.057-3.688 85.891-3.24 85.558-2.896 85.229-2.554 84.808-2.382 84.301-2.382M89.827 1.545C90.107 1.545 90.347 1.442 90.547 1.241 90.75 1.038 90.85 .794 90.85 .506 90.85 .222 90.75-.02 90.551-.22 90.353-.42 90.116-.521 89.837-.521 89.553-.521 89.311-.419 89.111-.214 88.909-.01 88.809 .238 88.809 .53 88.809 .811 88.909 1.049 89.107 1.246 89.305 1.445 89.545 1.545 89.827 1.545M89.025-1.072H90.623V-7.449H89.025ZM92.071-1.072H93.668V-1.729C94.031-1.425 94.361-1.215 94.655-1.095 94.949-.977 95.251-.917 95.56-.917 96.192-.917 96.73-1.137 97.17-1.577 97.541-1.953 97.727-2.507 97.727-3.24V-7.449H96.141V-4.661C96.141-3.901 96.108-3.396 96.04-3.148 95.972-2.898 95.851-2.708 95.683-2.578 95.513-2.447 95.303-2.382 95.055-2.382 94.731-2.382 94.453-2.49 94.22-2.706 93.988-2.922 93.828-3.223 93.738-3.603 93.692-3.803 93.668-4.233 93.668-4.896V-7.449H92.071ZM99.47 1.281H101.067V-1.072H102.015V-2.454H101.067V-7.449H99.47V-2.454H98.654V-1.072H99.47ZM109.26-4.711H104.126C104.201-5.165 104.399-5.527 104.719-5.798 105.04-6.066 105.45-6.2 105.946-6.2 106.542-6.2 107.052-5.99 107.481-5.569L108.822-6.204C108.488-6.68 108.085-7.033 107.619-7.263 107.151-7.491 106.596-7.604 105.954-7.604 104.957-7.604 104.144-7.291 103.518-6.66 102.892-6.031 102.578-5.243 102.578-4.297 102.578-3.326 102.892-2.52 103.518-1.879 104.144-1.236 104.929-.917 105.876-.917 106.878-.917 107.695-1.236 108.324-1.875 108.952-2.516 109.266-3.358 109.266-4.409ZM107.668-3.463C107.563-3.114 107.355-2.83 107.044-2.611 106.733-2.394 106.372-2.286 105.959-2.286 105.513-2.286 105.124-2.407 104.786-2.654 104.575-2.806 104.379-3.076 104.199-3.463ZM110.564-1.072H112.162V-1.729C112.524-1.425 112.854-1.215 113.149-1.095 113.443-.977 113.746-.917 114.053-.917 114.686-.917 115.224-1.137 115.665-1.577 116.035-1.953 116.22-2.507 116.22-3.24V-7.449H114.635V-4.661C114.635-3.901 114.601-3.396 114.533-3.148 114.465-2.898 114.345-2.708 114.177-2.578 114.007-2.447 113.797-2.382 113.548-2.382 113.225-2.382 112.947-2.49 112.714-2.706 112.482-2.922 112.322-3.223 112.232-3.603 112.186-3.803 112.162-4.233 112.162-4.896V-7.449H110.564ZM122.491-1.072H124.087V-7.449H122.491V-6.771C122.178-7.066 121.864-7.278 121.55-7.409 121.236-7.539 120.893-7.604 120.528-7.604 119.701-7.604 118.988-7.287 118.386-6.648 117.784-6.012 117.484-5.22 117.484-4.273 117.484-3.29 117.776-2.485 118.358-1.857 118.941-1.23 119.646-.917 120.479-.917 120.864-.917 121.222-.989 121.558-1.131 121.894-1.272 122.205-1.489 122.491-1.772ZM120.807-2.382C120.311-2.382 119.899-2.556 119.573-2.905 119.245-3.254 119.081-3.703 119.081-4.249 119.081-4.8 119.247-5.251 119.581-5.607 119.916-5.962 120.326-6.14 120.814-6.14 121.316-6.14 121.735-5.966 122.064-5.616 122.396-5.268 122.562-4.81 122.562-4.243 122.562-3.688 122.396-3.24 122.064-2.896 121.735-2.554 121.314-2.382 120.807-2.382M125.699-1.072H127.295V-1.729C127.658-1.425 127.988-1.215 128.283-1.095 128.577-.977 128.878-.917 129.187-.917 129.82-.917 130.357-1.137 130.798-1.577 131.168-1.953 131.354-2.507 131.354-3.24V-7.449H129.769V-4.661C129.769-3.901 129.735-3.396 129.667-3.148 129.599-2.898 129.479-2.708 129.311-2.578 129.141-2.447 128.931-2.382 128.682-2.382 128.359-2.382 128.08-2.49 127.848-2.706 127.616-2.922 127.456-3.223 127.366-3.603 127.32-3.803 127.295-4.233 127.295-4.896V-7.449H125.699ZM139.149-2.369 137.819-3.103C137.569-2.84 137.323-2.66 137.079-2.559 136.833-2.456 136.547-2.405 136.219-2.405 135.622-2.405 135.137-2.584 134.769-2.938 134.398-3.294 134.214-3.748 134.214-4.305 134.214-4.846 134.392-5.286 134.747-5.628 135.103-5.97 135.569-6.14 136.147-6.14 136.862-6.14 137.418-5.896 137.819-5.408L139.077-6.271C138.393-7.16 137.428-7.604 136.181-7.604 135.058-7.604 134.18-7.272 133.545-6.61 132.911-5.948 132.593-5.174 132.593-4.284 132.593-3.668 132.747-3.103 133.055-2.584 133.365-2.065 133.795-1.657 134.35-1.361 134.902-1.064 135.521-.917 136.206-.917 136.839-.917 137.409-1.043 137.913-1.295 138.417-1.548 138.83-1.905 139.149-2.369M146.974-4.711H141.841C141.915-5.165 142.114-5.527 142.433-5.798 142.753-6.066 143.164-6.2 143.661-6.2 144.256-6.2 144.767-5.99 145.195-5.569L146.536-6.204C146.202-6.68 145.799-7.033 145.333-7.263 144.865-7.491 144.31-7.604 143.668-7.604 142.671-7.604 141.859-7.291 141.233-6.66 140.606-6.031 140.292-5.243 140.292-4.297 140.292-3.326 140.606-2.52 141.233-1.879 141.859-1.236 142.644-.917 143.59-.917 144.592-.917 145.409-1.236 146.038-1.875 146.666-2.516 146.981-3.358 146.981-4.409ZM145.383-3.463C145.277-3.114 145.069-2.83 144.759-2.611 144.447-2.394 144.086-2.286 143.674-2.286 143.227-2.286 142.837-2.407 142.5-2.654 142.29-2.806 142.093-3.076 141.913-3.463ZM150.979 1.173H155.746V-.448H154.172V-7.449H152.503V-.448H150.979ZM163.065-4.711H157.932C158.005-5.165 158.204-5.527 158.524-5.798 158.844-6.066 159.254-6.2 159.75-6.2 160.347-6.2 160.857-5.99 161.286-5.569L162.626-6.204C162.292-6.68 161.89-7.033 161.423-7.263 160.956-7.491 160.401-7.604 159.758-7.604 158.762-7.604 157.949-7.291 157.323-6.66 156.697-6.031 156.382-5.243 156.382-4.297 156.382-3.326 156.697-2.52 157.323-1.879 157.949-1.236 158.734-.917 159.681-.917 160.683-.917 161.5-1.236 162.128-1.875 162.756-2.516 163.071-3.358 163.071-4.409ZM161.473-3.463C161.368-3.114 161.16-2.83 160.849-2.611 160.538-2.394 160.176-2.286 159.764-2.286 159.318-2.286 158.928-2.407 158.59-2.654 158.379-2.806 158.184-3.076 158.003-3.463ZM170.614-2.369 169.284-3.103C169.033-2.84 168.787-2.66 168.542-2.559 168.298-2.456 168.011-2.405 167.684-2.405 167.085-2.405 166.601-2.584 166.233-2.938 165.863-3.294 165.678-3.748 165.678-4.305 165.678-4.846 165.857-5.286 166.21-5.628 166.567-5.97 167.034-6.14 167.612-6.14 168.327-6.14 168.882-5.896 169.284-5.408L170.542-6.271C169.857-7.16 168.893-7.604 167.646-7.604 166.523-7.604 165.645-7.272 165.01-6.61 164.375-5.948 164.058-5.174 164.058-4.284 164.058-3.668 164.211-3.103 164.52-2.584 164.83-2.065 165.26-1.657 165.815-1.361 166.367-1.064 166.985-.917 167.669-.917 168.304-.917 168.873-1.043 169.376-1.295 169.88-1.548 170.293-1.905 170.614-2.369M172.069 1.39H173.666V-1.726C173.978-1.455 174.29-1.253 174.606-1.118 174.92-.985 175.241-.917 175.563-.917 176.194-.917 176.725-1.135 177.158-1.573 177.528-1.951 177.712-2.507 177.712-3.24V-7.449H176.139V-4.657C176.139-3.921 176.105-3.42 176.036-3.16 175.964-2.898 175.845-2.704 175.674-2.574 175.506-2.445 175.296-2.382 175.048-2.382 174.727-2.382 174.448-2.49 174.216-2.704 173.986-2.918 173.826-3.21 173.736-3.58 173.69-3.772 173.666-4.208 173.666-4.892V-7.449H172.069ZM179.263-1.072H180.861V-1.729C181.222-1.425 181.552-1.215 181.847-1.095 182.141-.977 182.444-.917 182.751-.917 183.384-.917 183.922-1.137 184.363-1.577 184.733-1.953 184.918-2.507 184.918-3.24V-7.449H183.333V-4.661C183.333-3.901 183.299-3.396 183.231-3.148 183.164-2.898 183.043-2.708 182.875-2.578 182.706-2.447 182.496-2.382 182.247-2.382 181.923-2.382 181.645-2.49 181.413-2.706 181.18-2.922 181.02-3.223 180.93-3.603 180.884-3.803 180.861-4.233 180.861-4.896V-7.449H179.263ZM189.469-.917C190.072-.917 190.638-1.067 191.168-1.367 191.701-1.667 192.114-2.073 192.412-2.588 192.709-3.104 192.858-3.658 192.858-4.255 192.858-4.855 192.708-5.415 192.41-5.938 192.109-6.461 191.701-6.869 191.185-7.163 190.667-7.457 190.098-7.604 189.476-7.604 188.559-7.604 187.777-7.281 187.13-6.632 186.482-5.981 186.158-5.193 186.158-4.267 186.158-3.272 186.524-2.443 187.256-1.781 187.899-1.205 188.635-.917 189.469-.917M189.494-2.418C188.996-2.418 188.581-2.59 188.251-2.934 187.92-3.28 187.754-3.721 187.754-4.259 187.754-4.811 187.918-5.26 188.245-5.602 188.571-5.944 188.986-6.116 189.488-6.116 189.989-6.116 190.404-5.941 190.739-5.596 191.071-5.25 191.237-4.803 191.237-4.259 191.237-3.713 191.073-3.271 190.747-2.928 190.42-2.588 190.002-2.418 189.494-2.418M193.988 1.39H195.587V-7.449H193.988ZM200.035-.917C200.637-.917 201.204-1.067 201.734-1.367 202.266-1.667 202.679-2.073 202.977-2.588 203.275-3.104 203.423-3.658 203.423-4.255 203.423-4.855 203.273-5.415 202.975-5.938 202.674-6.461 202.266-6.869 201.75-7.163 201.232-7.457 200.664-7.604 200.041-7.604 199.124-7.604 198.342-7.281 197.695-6.632 197.047-5.981 196.723-5.193 196.723-4.267 196.723-3.272 197.089-2.443 197.821-1.781 198.464-1.205 199.201-.917 200.035-.917M200.058-2.418C199.561-2.418 199.146-2.59 198.816-2.934 198.486-3.28 198.32-3.721 198.32-4.259 198.32-4.811 198.484-5.26 198.81-5.602 199.136-5.944 199.55-6.116 200.053-6.116 200.553-6.116 200.969-5.941 201.304-5.596 201.636-5.25 201.802-4.803 201.802-4.259 201.802-3.713 201.637-3.271 201.312-2.928 200.986-2.588 200.567-2.418 200.058-2.418M209.453-1.072H211.039V-6.528C211.039-7.604 210.82-8.397 210.386-8.903 209.803-9.59 208.925-9.935 207.75-9.935 207.125-9.935 206.599-9.856 206.171-9.7 205.745-9.544 205.384-9.314 205.092-9.01 204.798-8.708 204.58-8.34 204.44-7.905H206.21C206.367-8.083 206.57-8.218 206.817-8.31 207.063-8.399 207.356-8.445 207.694-8.445 208.126-8.445 208.472-8.38 208.735-8.247 208.999-8.115 209.182-7.945 209.291-7.737 209.399-7.527 209.453-7.166 209.453-6.654 209.17-6.937 208.875-7.141 208.564-7.263 208.254-7.387 207.904-7.449 207.511-7.449 206.653-7.449 205.927-7.141 205.334-6.524 204.742-5.908 204.446-5.128 204.446-4.183 204.446-3.172 204.76-2.359 205.386-1.747 205.957-1.193 206.635-.917 207.424-.917 207.792-.917 208.14-.985 208.468-1.118 208.794-1.253 209.123-1.476 209.453-1.783ZM207.778-2.418C207.271-2.418 206.853-2.586 206.525-2.922 206.195-3.258 206.031-3.681 206.031-4.188 206.031-4.717 206.199-5.151 206.537-5.49 206.874-5.827 207.297-5.996 207.808-5.996 208.306-5.996 208.716-5.83 209.041-5.5 209.363-5.169 209.525-4.737 209.525-4.201 209.525-3.672 209.363-3.244 209.037-2.914 208.71-2.584 208.292-2.418 207.778-2.418M211.936-1.072H213.578L215.228-5.065 217.057-1.072H218.695L214.707-9.778H213.069L214.366-6.979ZM225.789 1.173H227.443L230.76-7.449H229.053L228.38-5.672H224.846L224.159-7.449H222.451ZM226.618-1.118 225.449-4.087H227.78ZM232.023-7.449V1.173H233.383C234.174 1.173 234.751 1.123 235.117 1.021 235.635 .883 236.048 .629 236.354 .258 236.661-.114 236.815-.553 236.815-1.057 236.815-1.385 236.744-1.684 236.606-1.951 236.467-2.22 236.242-2.472 235.93-2.706 236.452-2.951 236.834-3.258 237.076-3.629 237.319-3.997 237.438-4.433 237.438-4.937 237.438-5.422 237.312-5.862 237.062-6.26 236.81-6.658 236.486-6.956 236.089-7.152 235.694-7.351 235.147-7.449 234.449-7.449ZM233.656-.389V-2.214H234.022C234.43-2.214 234.735-2.129 234.933-1.959 235.131-1.791 235.229-1.562 235.229-1.271 235.229-1.001 235.134-.786 234.947-.627 234.758-.469 234.472-.389 234.088-.389ZM233.656-3.679V-5.889H234.072C234.762-5.889 235.229-5.802 235.469-5.629 235.709-5.458 235.829-5.208 235.829-4.879 235.829-4.509 235.69-4.215 235.407-4.001 235.125-3.786 234.657-3.679 234.002-3.679Z" fill="#171d3a"/>
<path transform="matrix(1,0,0,-1,137.7621,44.645799)" d="M0 0C0 2.617-.779 4.547-2.335 5.777-3.892 7.008-6.329 7.619-9.645 7.619H-18.782C-20.813 7.619-21.828 8.436-21.828 10.066V10.882C-21.828 12.514-20.813 13.328-18.782 13.328H-14.045-2.995 0V19.038H-2.995-14.045-20.813C-24.366 19.038-26.947 18.393-28.554 17.101-30.162 15.81-30.964 13.736-30.964 10.882V9.658C-30.964 6.804-30.162 4.73-28.554 3.439-26.947 2.148-24.366 1.503-20.813 1.503H-11.087C-10.014 1.503-9.138 .625-9.138-.447V-1.957C-9.138-2.549-9.366-3.017-9.823-3.363-10.28-3.71-10.897-3.881-11.675-3.881H-12.152-17.107-21.312-23.3-30.508-30.964V-9.63H-30.508-23.264-23.148-21.312-19.823-16.32-12.869-12.152-9.645C-6.329-9.63-3.892-9.012-2.335-7.782-.779-6.552 0-4.628 0-2.012Z" fill="#00cbff" fill-rule="evenodd"/>
<path transform="matrix(1,0,0,-1,151.59511,25.607697)" d="M0 0-13.452-28.547H-3.554L-1.27-23.448H11.421L13.706-28.547H23.604L10.152 0ZM9.137-18.147H1.015L5.076-8.563Z" fill="#00cbff" fill-rule="evenodd"/>
<path transform="matrix(1,0,0,-1,187.0683,38.2493)" d="M0 0 7.106-10.195H14.214L21.321 0V-15.905H30.457V12.642H20.812L10.66-2.447 .509 12.642H-9.137V-15.905H0Z" fill="#00cbff" fill-rule="evenodd"/>
<path transform="matrix(1,0,0,-1,231.73921,31.317704)" d="M0 0V-22.837H9.137V0H19.796V5.71H-10.66V0Z" fill="#171d3a" fill-rule="evenodd"/>
<path transform="matrix(1,0,0,-1,255.08879,25.607697)" d="M0 0V-28.547H28.174V-22.837H9.138V-16.924H24.112V-11.215H9.138V-5.71H28.174V0Z" fill="#171d3a" fill-rule="evenodd"/>
<path transform="matrix(1,0,0,-1,318.7948,25.607697)" d="M0 0V-28.547H9.138V-16.924H21.828V-28.547H30.966V0H21.828V-11.215H9.138V0Z" fill="#171d3a" fill-rule="evenodd"/>
<path transform="matrix(1,0,0,-1,295.953,46.617509)" d="M0 0V13.351C0 14.423 .877 15.3 1.95 15.3H19.289V21.01H-1.825C-5.848 21.01-9.138 17.719-9.138 13.697V-.347C-9.138-4.368-5.848-7.658-1.825-7.658H19.289V-1.949H1.95C.877-1.949 0-1.072 0 0" fill="#171d3a" fill-rule="evenodd"/>
<path transform="matrix(1,0,0,-1,17.399804,15.940704)" d="M0 0 24.191-41.9H27.346 33.592 34.716C35.617-43.282 37.177-44.196 38.949-44.196 41.739-44.196 44-41.935 44-39.144 44-36.354 41.739-34.091 38.949-34.091 37.177-34.091 35.618-35.005 34.716-36.387H33.592 27.346L9.521-5.514H68.378L64.921-11.501H71.26L77.9 0ZM38.949-17.68C40.105-17.68 41.042-18.616 41.042-19.772 41.042-20.928 40.105-21.865 38.949-21.865 37.794-21.865 36.857-20.928 36.857-19.772 36.857-18.616 37.794-17.68 38.949-17.68M38.949-37.051C40.105-37.051 41.042-37.988 41.042-39.144 41.042-40.3 40.105-41.236 38.949-41.236 37.794-41.236 36.857-40.3 36.857-39.144 36.857-37.988 37.794-37.051 38.949-37.051M38.949-14.72C40.722-14.72 42.282-15.634 43.183-17.016H44.292 58.554 68.077L38.95-67.465 27.374-47.414H33.713L38.949-56.484 58.554-22.529H44.292 43.183C42.282-23.911 40.722-24.825 38.949-24.825 36.16-24.825 33.898-22.562 33.898-19.772 33.898-16.981 36.16-14.72 38.949-14.72" fill="#00cbff" fill-rule="evenodd"/>
</g>
</g>
</svg>
